<svg width="900" height="960" viewBox="0 0 900 960" fill="none" xmlns="http://www.w3.org/2000/svg">
  <rect width="900" height="960" rx="44" fill="#D3B181"/>
  <rect x="16" y="16" width="868" height="928" rx="34" fill="#C8A06A" stroke="#8C6432" stroke-width="4"/>
  <rect x="36" y="36" width="828" height="888" rx="26" fill="#E3C89D"/>

  <rect x="56" y="56" width="232" height="254" rx="18" fill="#8F5517"/>
  <rect x="308" y="56" width="284" height="254" rx="18" fill="#D1B281"/>
  <rect x="612" y="56" width="232" height="254" rx="18" fill="#16384D"/>

  <rect x="56" y="330" width="150" height="186" rx="16" fill="#252017"/>
  <rect x="636" y="330" width="98" height="90" rx="14" fill="#6D4A2C"/>
  <rect x="746" y="330" width="98" height="90" rx="14" fill="#1E3950"/>
  <rect x="636" y="432" width="98" height="84" rx="14" fill="#9D6931"/>
  <rect x="746" y="432" width="98" height="84" rx="14" fill="#6C4A2C"/>

  <text x="72" y="110" fill="#16110B" font-size="58" font-family="Arial, sans-serif" font-weight="900">TRUST</text>
  <text x="628" y="110" fill="#EFE3CF" font-size="50" font-family="Arial, sans-serif" font-weight="900">ATTENTION</text>

  <g opacity="0.78">
    <rect x="346" y="84" width="52" height="72" rx="8" fill="#E9D6B5" stroke="#8B673D"/>
    <rect x="406" y="84" width="52" height="72" rx="8" fill="#E9D6B5" stroke="#8B673D"/>
    <rect x="466" y="84" width="52" height="72" rx="8" fill="#E9D6B5" stroke="#8B673D"/>
    <rect x="376" y="170" width="112" height="84" rx="10" fill="#E9D6B5" stroke="#8B673D"/>
  </g>

  <g>
    <ellipse cx="172" cy="190" rx="66" ry="88" fill="#47230E"/>
    <path d="M100 194C112 134 142 106 178 106C212 106 236 128 244 168C232 150 216 142 202 142C176 142 152 160 136 186C124 206 114 218 100 194Z" fill="#1D130F"/>
    <path d="M154 234C172 244 194 242 208 226" stroke="#D7A473" stroke-width="8" stroke-linecap="round"/>
  </g>

  <g>
    <ellipse cx="726" cy="186" rx="66" ry="90" fill="#4C2813"/>
    <path d="M648 184C654 128 688 98 730 98C768 98 798 122 806 174C792 156 772 146 754 146C722 146 696 164 680 192C668 212 656 220 648 184Z" fill="#170F0D"/>
    <path d="M704 236C720 246 742 244 756 228" stroke="#D8A06C" stroke-width="8" stroke-linecap="round"/>
  </g>

  <g>
    <rect x="244" y="210" width="408" height="628" rx="32" fill="#DAB98C"/>
    <ellipse cx="448" cy="314" rx="118" ry="146" fill="#5C3117"/>
    <path d="M340 316C352 218 400 176 462 176C526 176 572 220 580 312L548 286L526 248L514 332L498 222L484 342L470 214L454 346L438 214L420 350L408 226L390 342L376 254L362 302L340 316Z" fill="#19110E"/>
    <ellipse cx="450" cy="348" rx="86" ry="104" fill="#76411F"/>
    <path d="M412 388C432 404 468 404 488 388" stroke="#D9A16D" stroke-width="10" stroke-linecap="round"/>
    <rect x="326" y="472" width="248" height="256" rx="38" fill="#171414"/>
    <path d="M320 516C364 490 388 486 414 484L416 726H302C296 650 300 562 320 516Z" fill="#171414"/>
    <path d="M580 516C536 490 512 486 486 484L484 726H598C604 650 600 562 580 516Z" fill="#171414"/>
    <path d="M396 640C418 666 478 666 500 640" stroke="#D7A16D" stroke-width="8" stroke-linecap="round" opacity="0.45"/>
    <path d="M314 690C360 650 390 644 414 646" stroke="#493229" stroke-width="26" stroke-linecap="round"/>
    <path d="M590 690C544 650 514 644 490 646" stroke="#493229" stroke-width="26" stroke-linecap="round"/>
  </g>

  <g opacity="0.7">
    <rect x="78" y="350" width="104" height="146" rx="12" fill="#16120D" stroke="#8B673D"/>
    <circle cx="130" cy="392" r="24" fill="#5D3A1A"/>
    <rect x="668" y="350" width="34" height="48" rx="6" fill="#D9C39B"/>
    <rect x="710" y="350" width="34" height="48" rx="6" fill="#D9C39B"/>
    <rect x="752" y="350" width="34" height="48" rx="6" fill="#D9C39B"/>
    <rect x="678" y="442" width="56" height="54" rx="8" fill="#D9C39B"/>
    <rect x="746" y="442" width="56" height="54" rx="8" fill="#D9C39B"/>
  </g>

  <rect x="0" y="0" width="900" height="960" rx="44" fill="url(#grain)" opacity="0.18"/>
  <defs>
    <filter id="noiseFilter">
      <feTurbulence type="fractalNoise" baseFrequency="0.75" numOctaves="2" stitchTiles="stitch"/>
    </filter>
    <pattern id="grain" patternUnits="userSpaceOnUse" width="120" height="120">
      <rect width="120" height="120" filter="url(#noiseFilter)" opacity="0.25"/>
    </pattern>
  </defs>
</svg>
